<?xml version="1.0" encoding="UTF-8" standalone="no"?>
<!-- Generator: Adobe Illustrator 18.1.1, SVG Export Plug-In . SVG Version: 6.00 Build 0)  -->

<svg
   xmlns:dc="http://purl.org/dc/elements/1.1/"
   xmlns:cc="http://creativecommons.org/ns#"
   xmlns:rdf="http://www.w3.org/1999/02/22-rdf-syntax-ns#"
   xmlns:svg="http://www.w3.org/2000/svg"
   xmlns="http://www.w3.org/2000/svg"
   xmlns:sodipodi="http://sodipodi.sourceforge.net/DTD/sodipodi-0.dtd"
   xmlns:inkscape="http://www.inkscape.org/namespaces/inkscape"
   version="1.1"
   id="Capa_1"
   x="0px"
   y="0px"
   viewBox="0 0 25.627 25.627"
   style="enable-background:new 0 0 25.627 25.627;"
   xml:space="preserve"
   inkscape:version="0.91 r13725"
   sodipodi:docname="cloudy46.svg"><metadata
     id="metadata3438"><rdf:RDF><cc:Work
         rdf:about=""><dc:format>image/svg+xml</dc:format><dc:type
           rdf:resource="http://purl.org/dc/dcmitype/StillImage" /><dc:title></dc:title></cc:Work></rdf:RDF></metadata><defs
     id="defs3436" /><sodipodi:namedview
     pagecolor="#ffffff"
     bordercolor="#666666"
     borderopacity="1"
     objecttolerance="10"
     gridtolerance="10"
     guidetolerance="10"
     inkscape:pageopacity="0"
     inkscape:pageshadow="2"
     inkscape:window-width="1366"
     inkscape:window-height="705"
     id="namedview3434"
     showgrid="false"
     inkscape:zoom="9.2090371"
     inkscape:cx="12.8135"
     inkscape:cy="12.8135"
     inkscape:window-x="-8"
     inkscape:window-y="-8"
     inkscape:window-maximized="1"
     inkscape:current-layer="Capa_1" /><g
     id="g3400"><path
       style="fill:#030104;"
       d="M21.846,8.537c-0.717-1.924-2.6-3.259-4.713-3.259c-0.735,0-1.447,0.156-2.101,0.458   c-1.176-1.518-3.002-2.427-4.972-2.427c-3.152,0-5.781,2.333-6.21,5.351C1.606,9.276,0,11.311,0,13.692   c0,2.665,2.021,4.87,4.623,5.186c0.745,2.033,2.715,3.44,4.953,3.44c1.496,0,2.9-0.63,3.885-1.698   c0.788,0.564,1.739,0.875,2.736,0.875c2.09,0,3.864-1.335,4.468-3.233c2.736-0.006,4.962-2.217,4.962-4.933   C25.626,11.022,24.042,9.07,21.846,8.537z M20.058,16.203l-1.082-0.209l-0.104,1.098c-0.128,1.369-1.278,2.402-2.675,2.402   c-0.82,0-1.587-0.365-2.102-1.002l-0.933-1.154l-0.719,1.299c-0.575,1.036-1.674,1.681-2.868,1.681   c-1.56,0-2.908-1.094-3.207-2.602l-0.16-0.806h-0.82l-0.119,0.006c-1.802,0-3.268-1.446-3.268-3.225   c0-1.644,1.246-3.02,2.897-3.202l0.885-0.098l0.006-0.89c0.015-2.312,1.932-4.193,4.272-4.193c1.585,0,3.032,0.86,3.776,2.246   l0.55,1.022l0.93-0.695c0.528-0.395,1.156-0.604,1.816-0.604c1.415,0,2.658,0.988,2.954,2.351l0.154,0.708l0.722,0.073   c1.518,0.155,2.663,1.41,2.664,2.918C23.627,15.138,21.927,16.561,20.058,16.203z"
       id="path3402" /></g><g
     id="g3404" /><g
     id="g3406" /><g
     id="g3408" /><g
     id="g3410" /><g
     id="g3412" /><g
     id="g3414" /><g
     id="g3416" /><g
     id="g3418" /><g
     id="g3420" /><g
     id="g3422" /><g
     id="g3424" /><g
     id="g3426" /><g
     id="g3428" /><g
     id="g3430" /><g
     id="g3432" /><path
     style="fill:#0000ff"
     d="M 8.4634825,20.064062 C 8.0175603,19.904939 7.8596547,19.80017 7.3148116,19.301927 6.861396,18.887292 6.5720496,18.332859 6.3903916,17.530595 L 6.249259,16.907305 5.3344154,16.847727 C 4.2549045,16.777425 3.6279934,16.525397 3.0207099,15.91758 2.0294446,14.925444 1.7990881,13.550473 2.4169767,12.313968 2.941195,11.264914 3.7077084,10.743525 5.0532238,10.520768 L 5.8312286,10.391966 5.8887102,9.4146651 C 5.9890985,7.7078633 6.747415,6.5485296 8.2487948,5.8065075 9.023932,5.4234139 9.1416863,5.3968726 10.066199,5.3968726 c 0.924513,0 1.042267,0.026541 1.817404,0.4096349 0.941262,0.465197 1.554445,1.0802803 2.04651,2.0528542 0.171546,0.3390619 0.359657,0.64599 0.418022,0.6820624 0.05837,0.036072 0.407335,-0.1561547 0.775485,-0.4271715 0.811307,-0.5972494 1.653189,-0.869443 2.3609,-0.7633152 1.171852,0.1757301 2.162081,1.0202166 2.475969,2.1115534 0.2613,0.9084952 0.273776,0.9215532 0.964068,1.0088782 2.459856,0.311185 3.498951,3.137998 1.783906,4.853043 -0.762205,0.762205 -1.809213,0.99633 -3.266658,0.730469 l -0.505991,-0.0923 -0.07703,0.743835 c -0.09478,0.915206 -0.284042,1.395567 -0.735352,1.866387 -0.919432,0.959179 -2.287892,1.133479 -3.337323,0.425071 -0.199256,-0.134505 -0.630456,-0.562179 -0.958219,-0.950384 -0.327765,-0.388206 -0.62412,-0.716487 -0.658566,-0.729513 -0.03445,-0.01303 -0.279977,0.370036 -0.545624,0.851253 -0.552505,1.000856 -1.198425,1.629274 -1.93133,1.879001 -0.607562,0.207017 -1.6719212,0.214576 -2.2288835,0.01583 z"
     id="path3440"
     inkscape:connector-curvature="0" /></svg>