<?xml version="1.0" encoding="UTF-8" standalone="no"?>
<!-- Generator: Adobe Illustrator 16.0.0, SVG Export Plug-In . SVG Version: 6.00 Build 0)  -->

<svg
   xmlns:dc="http://purl.org/dc/elements/1.1/"
   xmlns:cc="http://creativecommons.org/ns#"
   xmlns:rdf="http://www.w3.org/1999/02/22-rdf-syntax-ns#"
   xmlns:svg="http://www.w3.org/2000/svg"
   xmlns="http://www.w3.org/2000/svg"
   xmlns:sodipodi="http://sodipodi.sourceforge.net/DTD/sodipodi-0.dtd"
   xmlns:inkscape="http://www.inkscape.org/namespaces/inkscape"
   version="1.1"
   id="Capa_1"
   x="0px"
   y="0px"
   width="612px"
   height="612px"
   viewBox="0 0 612 612"
   style="enable-background:new 0 0 612 612;"
   xml:space="preserve"
   inkscape:version="0.91 r13725"
   sodipodi:docname="cloudy19.svg"><metadata
     id="metadata3419"><rdf:RDF><cc:Work
         rdf:about=""><dc:format>image/svg+xml</dc:format><dc:type
           rdf:resource="http://purl.org/dc/dcmitype/StillImage" /><dc:title></dc:title></cc:Work></rdf:RDF></metadata><defs
     id="defs3417" /><sodipodi:namedview
     pagecolor="#ffffff"
     bordercolor="#666666"
     borderopacity="1"
     objecttolerance="10"
     gridtolerance="10"
     guidetolerance="10"
     inkscape:pageopacity="0"
     inkscape:pageshadow="2"
     inkscape:window-width="1366"
     inkscape:window-height="705"
     id="namedview3415"
     showgrid="false"
     inkscape:zoom="0.38562092"
     inkscape:cx="306"
     inkscape:cy="306"
     inkscape:window-x="-8"
     inkscape:window-y="-8"
     inkscape:window-maximized="1"
     inkscape:current-layer="Capa_1" /><g
     id="g3378"><g
       id="Cloud_x5F_Sun"><g
         id="g3381"><path
           d="M365.707,134.341c12.375,0,22.391-10.031,22.391-22.39v-44.78c0-12.359-10.016-22.391-22.391-22.391     c-12.374,0-22.39,10.031-22.39,22.391v44.78C343.317,124.311,353.333,134.341,365.707,134.341z M452.716,383.127     c24.479-23.122,39.869-55.736,39.869-92.054c0-70.052-56.812-126.878-126.878-126.878c-42.108,0-79.336,20.599-102.413,52.184     c-14.822-4.657-30.48-7.404-46.855-7.404c-83.307,0-151.239,65.036-156.254,147.089C24.435,374.753,0,412.115,0,455.269     C0,517.11,50.109,567.22,111.951,567.22h298.537c53.587,0,97.023-43.438,97.023-97.024     C507.512,431.788,485.077,398.845,452.716,383.127z M365.707,208.976c45.273,0,82.098,36.825,82.098,82.098     c0,14.941-4.209,28.854-11.239,40.914c-17.614-36.347-54.244-61.737-97.024-63.125c-9.853-12.494-21.659-23.331-34.795-32.347     C319.763,219.708,341.437,208.976,365.707,208.976z M410.488,522.439H111.951c-37.033,0-67.171-30.138-67.171-67.171     c0-25.062,13.853-47.87,36.153-59.514l22.405-11.718l1.538-25.241c3.612-58.901,52.617-105.04,111.563-105.04     c34.436,0,66.469,15.613,87.919,42.825l12.897,16.375l20.838,0.672c36.406,1.179,64.932,30.614,64.932,67.006v29.839     l27.555,11.494c19.524,8.149,32.152,27.077,32.152,48.229C462.731,499.004,439.297,522.439,410.488,522.439z M485.122,194.049     c6.18,0,11.777-2.508,15.822-6.553l29.854-29.854c4.061-4.06,6.568-9.658,6.568-15.837c0-12.359-10.017-22.39-22.391-22.39     c-6.18,0-11.777,2.508-15.822,6.568L469.3,155.836c-4.061,4.045-6.568,9.643-6.568,15.823     C462.731,184.018,472.748,194.049,485.122,194.049z M230.455,187.496c4.061,4.045,9.658,6.553,15.837,6.553     c12.36,0,22.391-10.031,22.391-22.39c0-6.18-2.508-11.777-6.568-15.837l-29.854-29.854c-4.045-4.045-9.643-6.553-15.822-6.553     c-12.359,0-22.39,10.031-22.39,22.39c0,6.18,2.508,11.777,6.568,15.823L230.455,187.496z M589.609,268.683h-44.78     c-12.359,0-22.39,10.031-22.39,22.39s10.03,22.391,22.39,22.391h44.78c12.359,0,22.391-10.031,22.391-22.391     S601.969,268.683,589.609,268.683z"
           id="path3383" /></g></g></g><g
     id="g3385" /><g
     id="g3387" /><g
     id="g3389" /><g
     id="g3391" /><g
     id="g3393" /><g
     id="g3395" /><g
     id="g3397" /><g
     id="g3399" /><g
     id="g3401" /><g
     id="g3403" /><g
     id="g3405" /><g
     id="g3407" /><g
     id="g3409" /><g
     id="g3411" /><g
     id="g3413" /><path
     style="fill:#ffff00"
     d="m 432.23697,321.91143 c -0.93443,-2.94414 -8.3065,-12.07522 -16.38237,-20.29129 -16.29162,-16.57443 -36.05432,-27.2101 -59.71065,-32.13443 -12.94715,-2.69508 -17.62298,-5.41942 -31.66623,-18.4501 l -16.47611,-15.28812 10.15611,-8.77927 c 13.25685,-11.45963 33.79303,-17.41697 54.35129,-15.76675 49.77264,3.99527 84.26319,53.64909 70.39722,101.34635 -4.48304,15.42112 -7.81779,18.34777 -10.66926,9.36361 z"
     id="path3421"
     inkscape:connector-curvature="0" /><path
     style="fill:#0000ff"
     d="M 94.82035,518.93176 C 55.823613,507.62962 35.450514,461.78027 53.552172,426.05837 c 7.419223,-14.64114 17.925261,-24.1584 36.989826,-33.50854 7.677724,-3.76551 13.714112,-8.48009 13.725142,-10.71971 0.10017,-20.34817 5.9214,-48.92238 12.97946,-63.71122 20.59684,-43.15678 71.32678,-69.91748 116.58605,-61.50064 26.97869,5.01721 43.14089,14.2046 65.16616,37.04364 18.9862,19.68767 20.4294,20.63641 31.39235,20.63641 20.46852,0 37.76385,6.93175 51.45436,20.62227 14.91979,14.91978 20.62228,31.10511 20.62228,58.53192 l 0,18.56879 18.00581,7.06434 c 35.70966,14.01021 50.28141,44.89402 35.06535,74.31863 -5.26056,10.1728 -20.50156,22.51874 -31.60622,25.60252 -12.26228,3.40526 -317.34402,3.33574 -329.11239,-0.0749 l 0,-8e-5 z"
     id="path3423"
     inkscape:connector-curvature="0" /></svg>