<?xml version="1.0" encoding="UTF-8" standalone="no"?>
<!-- Generator: Adobe Illustrator 18.1.1, SVG Export Plug-In . SVG Version: 6.00 Build 0)  -->

<svg
   xmlns:dc="http://purl.org/dc/elements/1.1/"
   xmlns:cc="http://creativecommons.org/ns#"
   xmlns:rdf="http://www.w3.org/1999/02/22-rdf-syntax-ns#"
   xmlns:svg="http://www.w3.org/2000/svg"
   xmlns="http://www.w3.org/2000/svg"
   xmlns:sodipodi="http://sodipodi.sourceforge.net/DTD/sodipodi-0.dtd"
   xmlns:inkscape="http://www.inkscape.org/namespaces/inkscape"
   version="1.1"
   id="Capa_1"
   x="0px"
   y="0px"
   viewBox="0 0 140.582 140.582"
   style="enable-background:new 0 0 140.582 140.582;"
   xml:space="preserve"
   inkscape:version="0.91 r13725"
   sodipodi:docname="half-moon1.svg"><metadata
     id="metadata3465"><rdf:RDF><cc:Work
         rdf:about=""><dc:format>image/svg+xml</dc:format><dc:type
           rdf:resource="http://purl.org/dc/dcmitype/StillImage" /><dc:title></dc:title></cc:Work></rdf:RDF></metadata><defs
     id="defs3463" /><sodipodi:namedview
     pagecolor="#ffffff"
     bordercolor="#666666"
     borderopacity="1"
     objecttolerance="10"
     gridtolerance="10"
     guidetolerance="10"
     inkscape:pageopacity="0"
     inkscape:pageshadow="2"
     inkscape:window-width="1366"
     inkscape:window-height="705"
     id="namedview3461"
     showgrid="false"
     inkscape:zoom="1.6787355"
     inkscape:cx="70.291"
     inkscape:cy="70.291"
     inkscape:window-x="-8"
     inkscape:window-y="-8"
     inkscape:window-maximized="1"
     inkscape:current-layer="Capa_1" /><g
     id="_x32__1_"><g
       id="g3427"><path
         style="fill-rule:evenodd;clip-rule:evenodd;"
         d="M127.849,9.454c-2.745-5.447-8.319-8.916-14.468-8.916    c-6.219,0.002-11.823,3.529-14.539,9.067c-3.447-0.268-6.738,0.978-9.155,3.401c-2.209,2.214-3.426,5.158-3.425,8.287    c0.002,6.461,5.249,11.718,11.697,11.718h0.003l30.85-0.006c3.145-0.001,6.101-1.229,8.324-3.457    c2.223-2.228,3.447-5.19,3.446-8.341C140.581,14.388,134.728,8.891,127.849,9.454z M135.293,27.703    c-1.731,1.735-4.033,2.691-6.481,2.692l-30.85,0.006l-0.003,1.305v-1.305c-5.012,0-9.089-4.086-9.091-9.107    c0-2.433,0.945-4.721,2.661-6.442c1.717-1.721,4-2.669,6.428-2.669c0.486,0,0.98,0.04,1.469,0.119    c0.592,0.104,1.177-0.227,1.41-0.785c2.123-5.082,7.047-8.366,12.549-8.368c5.434,0,10.336,3.232,12.49,8.234    c0.237,0.552,0.829,0.867,1.411,0.771c0.509-0.086,1.021-0.129,1.523-0.129c5.054,0,9.167,4.12,9.168,9.183    C137.978,23.661,137.024,25.967,135.293,27.703z M91.894,114.822c-6.402,3.822-13.737,5.843-21.213,5.843    c-22.882,0-41.497-18.652-41.497-41.578c0-16.815,10.005-31.875,25.488-38.368c0.557-0.234,0.881-0.822,0.782-1.419    c-0.099-0.597-0.595-1.048-1.199-1.087c-1.279-0.084-2.352-0.124-3.377-0.124C22.824,38.088,0,60.957,0,89.066    s22.824,50.978,50.879,50.978c17.357,0,33.348-8.745,42.777-23.393c0.327-0.51,0.262-1.179-0.158-1.615    C93.078,114.602,92.415,114.511,91.894,114.822z M50.879,137.434c-26.618,0-48.273-21.698-48.273-48.367    c0-25.95,20.504-47.193,46.131-48.321C35.12,48.554,26.579,63.072,26.579,79.087c0,24.366,19.784,44.189,44.103,44.189    c6.091,0,12.094-1.262,17.63-3.682C79.183,130.852,65.544,137.434,50.879,137.434z M65.832,63.606l-1.194,6.97    c-0.084,0.489,0.117,0.985,0.518,1.277c0.403,0.291,0.934,0.33,1.372,0.099l6.247-3.291l6.248,3.291    c0.191,0.1,0.399,0.149,0.606,0.149c0.27,0,0.539-0.084,0.766-0.249c0.401-0.292,0.602-0.788,0.518-1.277l-1.194-6.97l5.055-4.936    c0.355-0.347,0.482-0.866,0.33-1.338c-0.154-0.473-0.561-0.817-1.052-0.888l-6.985-1.017l-3.124-6.342    c-0.219-0.445-0.672-0.727-1.168-0.727c-0.496,0-0.949,0.282-1.168,0.727l-3.124,6.342l-6.985,1.017    c-0.49,0.072-0.898,0.416-1.052,0.888c-0.153,0.473-0.026,0.992,0.33,1.338L65.832,63.606z M69.537,57.91    c0.424-0.062,0.791-0.329,0.98-0.714l2.259-4.586l2.259,4.586c0.189,0.385,0.556,0.652,0.98,0.714l5.051,0.735l-3.655,3.57    c-0.307,0.3-0.447,0.732-0.375,1.156L77.9,68.41l-4.518-2.379c-0.19-0.1-0.399-0.15-0.606-0.15c-0.208,0-0.416,0.05-0.606,0.15    l-4.517,2.379l0.864-5.039c0.072-0.424-0.068-0.856-0.375-1.156l-3.654-3.57L69.537,57.91z M122.437,84.538l-4.917-0.716    l-2.198-4.464c-0.219-0.445-0.672-0.727-1.168-0.727s-0.949,0.282-1.168,0.727l-2.199,4.464l-4.917,0.716    c-0.491,0.071-0.898,0.416-1.052,0.888c-0.153,0.473-0.025,0.992,0.33,1.338l3.558,3.474l-0.841,4.906    c-0.084,0.49,0.117,0.985,0.518,1.277c0.227,0.165,0.496,0.249,0.766,0.249c0.208,0,0.416-0.049,0.606-0.15l4.398-2.317    l4.397,2.317c0.439,0.231,0.971,0.193,1.372-0.099c0.401-0.292,0.602-0.787,0.518-1.277l-0.84-4.906l3.558-3.474    c0.355-0.347,0.483-0.865,0.33-1.338C123.336,84.954,122.928,84.61,122.437,84.538z M117.293,88.849    c-0.307,0.3-0.447,0.732-0.375,1.156l0.51,2.975l-2.667-1.405c-0.38-0.2-0.833-0.2-1.213,0l-2.667,1.405l0.51-2.975    c0.072-0.424-0.068-0.856-0.375-1.156l-2.158-2.108l2.982-0.434c0.424-0.062,0.791-0.329,0.981-0.714l1.334-2.707l1.333,2.707    c0.189,0.385,0.556,0.652,0.98,0.714l2.982,0.434L117.293,88.849z"
         id="path3429" /></g></g><g
     id="g3431" /><g
     id="g3433" /><g
     id="g3435" /><g
     id="g3437" /><g
     id="g3439" /><g
     id="g3441" /><g
     id="g3443" /><g
     id="g3445" /><g
     id="g3447" /><g
     id="g3449" /><g
     id="g3451" /><g
     id="g3453" /><g
     id="g3455" /><g
     id="g3457" /><g
     id="g3459" /><path
     style="fill:#0000ff"
     d="m 93.406628,28.758741 c -2.601184,-1.714821 -4.127576,-4.523922 -4.082388,-7.513036 0.07299,-4.82797 3.187075,-8.074633 8.148106,-8.494991 2.815184,-0.238535 3.127784,-0.430393 4.610164,-2.8294425 2.41911,-3.9150289 5.77465,-5.8529792 10.60719,-6.1260421 5.63692,-0.3185143 9.376,1.7803368 12.67344,7.1139556 0.77764,1.257837 1.41915,1.556908 3.33958,1.556908 8.71554,0 12.15006,11.249198 4.91101,16.085198 -1.99456,1.332453 -2.28987,1.352111 -20.25334,1.348243 -16.934652,-0.0036 -18.351736,-0.08466 -19.953762,-1.140793 z"
     id="path3467"
     inkscape:connector-curvature="0" /><path
     style="fill:#0000ff"
     d="m 111.5125,90.741463 c 0,-0.945542 -0.39913,-2.050422 -0.88697,-2.455289 -1.09265,-0.906819 -0.63071,-1.792502 0.9349,-1.792502 0.67649,0 1.46203,-0.64317 1.86457,-1.526639 l 0.69558,-1.526639 0.79989,1.526639 c 0.44552,0.850301 1.31927,1.526639 1.97223,1.526639 1.24062,0 1.57771,0.870534 0.57667,1.489216 -0.32763,0.202485 -0.59569,1.284794 -0.59569,2.40513 0,1.972228 -0.0487,2.014769 -1.53335,1.338334 -1.1797,-0.537507 -1.79795,-0.533398 -2.68059,0.01782 -1.03302,0.64513 -1.14724,0.545299 -1.14724,-1.002707 z"
     id="path3469"
     inkscape:connector-curvature="0" /><path
     style="fill:#ffff00"
     d="m 75.245753,66.685815 c -2.055024,-1.267704 -2.112052,-1.263856 -6.106938,0.412036 -0.836089,0.350748 -0.93319,0.04582 -0.688009,-2.160548 0.244239,-2.197904 0.06221,-2.777507 -1.260345,-4.013063 -1.947514,-1.819407 -1.951884,-2.427831 -0.01744,-2.427831 2.220217,0 3.568243,-0.901621 4.419057,-2.955667 0.41231,-0.995404 0.95267,-1.809825 1.200802,-1.809825 0.248132,0 0.788493,0.814421 1.200803,1.809825 0.850814,2.054046 2.19884,2.955667 4.419058,2.955667 1.935299,0 1.930134,0.609133 -0.02059,2.427831 -1.369837,1.277127 -1.510857,1.771344 -1.219439,4.273641 0.181239,1.556231 0.27514,2.807303 0.208669,2.780161 -0.06647,-0.02714 -1.027506,-0.608645 -2.135634,-1.292227 z"
     id="path3471"
     inkscape:connector-curvature="0" /><path
     style="fill:#ffff00"
     d="m 111.68567,90.663477 c -0.14855,-0.491442 -0.51402,-1.50418 -0.81216,-2.25053 -0.45782,-1.146099 -0.30904,-1.445594 0.95726,-1.927041 0.82463,-0.313522 1.63894,-0.933868 1.80957,-1.378547 0.23173,-0.603861 0.72716,-0.426522 1.95736,0.70063 1.37641,1.261125 1.59213,1.847222 1.31262,3.566363 -0.31222,1.920268 -0.48827,2.061402 -2.64452,2.119941 -1.57642,0.0428 -2.39582,-0.221054 -2.58013,-0.830816 z"
     id="path3473"
     inkscape:connector-curvature="0" /><path
     style="fill:#ffff00"
     d="M 41.817188,136.23586 C 25.758554,133.00415 11.999216,121.44187 6.1638508,106.27556 3.8459893,100.25136 3.0975695,95.928421 3.0975695,88.564458 c 0,-13.910952 6.6164067,-27.810943 17.4387775,-36.636028 4.699763,-3.832415 13.061428,-7.991536 19.142305,-9.521451 7.55164,-1.899951 8.270367,-1.658023 4.140048,1.393561 -7.438967,5.496098 -12.701836,13.180319 -15.787128,23.050504 -2.006536,6.419129 -2.006536,17.973965 0,24.393094 6.104676,19.529532 22.78589,32.191452 42.378566,32.167572 4.448223,-0.005 6.816845,-0.33908 14.594318,-2.05589 1.684928,-0.37194 1.599823,-0.21594 -1.489217,2.7297 -10.904463,10.39825 -27.040458,15.1001 -41.698051,12.15034 z"
     id="path3475"
     inkscape:connector-curvature="0" /></svg>