<?xml version="1.0" encoding="UTF-8" standalone="no"?>
<!-- Generator: Adobe Illustrator 18.1.1, SVG Export Plug-In . SVG Version: 6.00 Build 0)  -->

<svg
   xmlns:dc="http://purl.org/dc/elements/1.1/"
   xmlns:cc="http://creativecommons.org/ns#"
   xmlns:rdf="http://www.w3.org/1999/02/22-rdf-syntax-ns#"
   xmlns:svg="http://www.w3.org/2000/svg"
   xmlns="http://www.w3.org/2000/svg"
   xmlns:sodipodi="http://sodipodi.sourceforge.net/DTD/sodipodi-0.dtd"
   xmlns:inkscape="http://www.inkscape.org/namespaces/inkscape"
   version="1.1"
   id="Capa_1"
   x="0px"
   y="0px"
   viewBox="0 0 211.438 211.438"
   style="enable-background:new 0 0 211.438 211.438;"
   xml:space="preserve"
   inkscape:version="0.91 r13725"
   sodipodi:docname="halfmoon14.svg"><metadata
     id="metadata3516"><rdf:RDF><cc:Work
         rdf:about=""><dc:format>image/svg+xml</dc:format><dc:type
           rdf:resource="http://purl.org/dc/dcmitype/StillImage" /><dc:title></dc:title></cc:Work></rdf:RDF></metadata><defs
     id="defs3514" /><sodipodi:namedview
     pagecolor="#ffffff"
     bordercolor="#666666"
     borderopacity="1"
     objecttolerance="10"
     gridtolerance="10"
     guidetolerance="10"
     inkscape:pageopacity="0"
     inkscape:pageshadow="2"
     inkscape:window-width="1366"
     inkscape:window-height="705"
     id="namedview3512"
     showgrid="false"
     inkscape:zoom="1.1161664"
     inkscape:cx="105.719"
     inkscape:cy="105.719"
     inkscape:window-x="-8"
     inkscape:window-y="-8"
     inkscape:window-maximized="1"
     inkscape:current-layer="Capa_1" /><g
     id="g3478"><path
       style="fill:#010002;"
       d="M211.195,109.879c-0.344-0.472-0.959-0.687-1.517-0.497c-5.837,1.936-11.918,2.91-18.07,2.91   c-31.719,0-57.534-25.804-57.534-57.526c0-12.809,4.13-24.937,11.946-35.073c0.361-0.469,0.372-1.12,0.029-1.593   c-0.336-0.476-0.945-0.684-1.51-0.494c-24.694,8.16-41.289,31.136-41.289,57.161c0,8.883,2.008,17.289,5.486,24.887   c-1.432,0.19-2.859,0.444-4.273,0.798c-6.778-12.193-19.465-19.709-33.466-19.709c-20.603,0-37.46,16.341-38.272,36.934   C13.958,120.408,0,136.434,0,155.588c0,21.126,17.189,38.315,38.312,38.315h115.293c21.122,0,38.312-17.189,38.312-38.315   c0-9.119-3.253-17.493-8.611-24.089c10.876-3.783,20.571-10.565,27.858-20.027C211.521,111.002,211.528,110.362,211.195,109.879z    M153.604,190.324H38.312c-19.154,0-34.733-15.582-34.733-34.736c0-17.844,13.363-32.696,31.089-34.543l1.593-0.372v-1.61   c0-19.154,15.582-34.736,34.736-34.736c13.127,0,24.988,7.297,30.957,19.039l0.673,1.321l1.421-0.412   c3.192-0.927,6.449-1.396,9.677-1.396c12.615,0,24.261,6.871,30.392,17.934l0.651,1.167l1.299-0.286   c22.271-4.914,42.27,12.279,42.27,33.895C188.337,174.738,172.755,190.324,153.604,190.324z M181.441,129.33   c-8.489-9.012-21.233-13.94-34.851-11.395c-6.914-11.531-19.387-18.635-32.865-18.635c-0.719,0-1.439,0.093-2.162,0.132   c-3.582-7.483-5.64-15.826-5.64-24.665c0-23.413,14.058-44.245,35.406-53.11c-6.514,9.828-9.928,21.19-9.928,33.108   c0,33.201,27.006,60.207,60.207,60.207c4.964,0,9.881-0.608,14.68-1.814C199.482,120.769,190.914,126.234,181.441,129.33z"
       id="path3480" /></g><g
     id="g3482" /><g
     id="g3484" /><g
     id="g3486" /><g
     id="g3488" /><g
     id="g3490" /><g
     id="g3492" /><g
     id="g3494" /><g
     id="g3496" /><g
     id="g3498" /><g
     id="g3500" /><g
     id="g3502" /><g
     id="g3504" /><g
     id="g3506" /><g
     id="g3508" /><g
     id="g3510" /><path
     style="fill:#ffff00"
     d="M 29.766389,188.67877 C 22.963243,186.8506 18.210154,183.85427 12.904627,178.04917 5.2294384,169.6513 2.3297199,158.57191 5.0390991,147.99616 8.5553048,134.27107 18.215358,124.86396 31.640942,122.09087 l 5.032007,-1.03938 0.448629,-5.58898 c 1.524743,-18.995086 20.635349,-33.517647 39.602641,-30.094897 9.786941,1.766106 17.664707,6.992642 22.946885,15.224197 2.733796,4.26025 3.035386,4.46122 5.677036,3.78292 1.53442,-0.39399 5.81698,-0.68971 9.5168,-0.65715 10.48626,0.0923 20.20763,5.12973 26.42097,13.69088 l 3.02526,4.16839 8.34316,0.0651 c 11.466,0.0894 17.21577,2.36731 24.51368,9.7117 6.17881,6.21817 9.09573,11.75953 10.07538,19.14049 2.36358,17.80793 -8.2686,33.79026 -25.45718,38.26731 -7.61554,1.9836 -124.603266,1.91037 -132.019821,-0.0826 l 0,-4e-5 z"
     id="path3518"
     inkscape:connector-curvature="0" /><path
     style="fill:#ffff00"
     d="m 178.81065,126.3945 c -5.6262,-5.87249 -19.58072,-10.51411 -28.18001,-9.37338 -3.77001,0.50011 -4.20431,0.35365 -5.36119,-1.80801 -1.91723,-3.58237 -9.35832,-9.87176 -14.56115,-12.30743 -4.91267,-2.29982 -12.42112,-4.174883 -16.71785,-4.174883 -2.36554,0 -2.71311,-0.446749 -4.35644,-5.599524 -2.68846,-8.429833 -2.94636,-10.108681 -2.91155,-18.953018 0.0563,-14.295309 5.06333,-27.301621 14.45684,-37.552976 4.87143,-5.316316 16.48107,-13.941792 17.45472,-12.968137 0.23606,0.236055 -0.75844,3.048461 -2.20999,6.249792 -10.06426,22.196246 -5.44878,49.08255 11.41024,66.46752 8.59513,8.863266 19.85685,15.259666 31.0817,17.653686 5.83832,1.24519 20.23858,1.48098 23.78019,0.38938 l 2.2016,-0.67859 -2.16789,2.34672 c -3.09498,3.35028 -10.44079,8.20333 -16.3124,10.77687 l -5.04142,2.20967 -2.5654,-2.67769 z"
     id="path3520"
     inkscape:connector-curvature="0" /><path
     style="fill:#0000ff"
     d="M 48.559067,189.20192 C 26.179116,188.50761 24.029386,187.90862 15.721447,180.05207 8.9674976,173.66507 5.4040745,166.50848 4.8600342,158.2386 3.7181505,140.88099 14.448172,126.42516 31.304818,122.61134 l 5.159278,-1.16729 1.09304,-6.53865 c 1.817111,-10.87009 6.756053,-18.667002 15.235094,-24.051027 15.387047,-9.770475 33.38863,-6.481306 45.228646,8.263976 l 4.267884,5.315131 10.10954,0.0604 c 9.5501,0.0571 10.43934,0.22274 16.06933,2.99377 5.38314,2.64953 15.05935,11.38699 15.05935,13.59835 0,0.38975 4.38275,0.88922 9.73942,1.10992 8.25159,0.33998 10.49063,0.76881 14.65686,2.80715 6.20807,3.03733 13.51324,10.69805 16.59399,17.40163 3.20177,6.96692 3.33291,17.84447 0.30824,25.56718 -2.8536,7.28594 -10.09655,14.88488 -17.30385,18.15436 -5.48516,2.48825 -6.152,2.56946 -26.23447,3.1952 -24.51106,0.76374 -65.98038,0.71028 -92.728103,-0.11953 z"
     id="path3522"
     inkscape:connector-curvature="0" /><path
     style="fill:#0000ff"
     d="M 38.522217,188.28975 C 25.600425,187.47424 22.071845,185.95686 14.651906,178.02491 7.4166994,170.29046 5.2889114,164.63567 5.7164263,154.27807 c 0.3631226,-8.79754 2.9026557,-15.35511 8.2302597,-21.25213 3.843298,-4.25407 12.01785,-8.80178 18.207282,-10.12918 l 4.471641,-0.95899 1.567418,-7.34785 c 2.698283,-12.6492 8.712774,-20.728085 18.905386,-25.394417 15.052848,-6.891422 31.089033,-2.400368 41.698413,11.677957 l 3.069704,4.0734 9.85516,0.0284 c 9.06044,0.0261 10.31358,0.24527 15.5399,2.71773 3.66734,1.73493 7.7322,4.73679 11.45421,8.4588 l 5.76948,5.76948 8.70407,0.57097 c 11.16222,0.73222 17.7557,3.65114 24.21696,10.7208 6.01932,6.58609 8.25438,11.50914 8.85988,19.51515 0.84376,11.15639 -2.83846,20.15458 -11.42038,27.90783 -5.92412,5.35208 -10.5975,6.97645 -22.35959,7.7717 -12.84166,0.86825 -99.763203,0.77827 -113.964003,-0.11798 z"
     id="path3524"
     inkscape:connector-curvature="0" /></svg>