<?xml version="1.0" encoding="UTF-8" standalone="no"?>
<!-- Generator: Adobe Illustrator 16.0.0, SVG Export Plug-In . SVG Version: 6.00 Build 0)  -->

<svg
   xmlns:dc="http://purl.org/dc/elements/1.1/"
   xmlns:cc="http://creativecommons.org/ns#"
   xmlns:rdf="http://www.w3.org/1999/02/22-rdf-syntax-ns#"
   xmlns:svg="http://www.w3.org/2000/svg"
   xmlns="http://www.w3.org/2000/svg"
   xmlns:sodipodi="http://sodipodi.sourceforge.net/DTD/sodipodi-0.dtd"
   xmlns:inkscape="http://www.inkscape.org/namespaces/inkscape"
   version="1.1"
   id="Capa_1"
   x="0px"
   y="0px"
   width="95.168px"
   height="95.168px"
   viewBox="0 0 95.168 95.168"
   style="enable-background:new 0 0 95.168 95.168;"
   xml:space="preserve"
   inkscape:version="0.91 r13725"
   sodipodi:docname="night13.svg"><metadata
     id="metadata3682"><rdf:RDF><cc:Work
         rdf:about=""><dc:format>image/svg+xml</dc:format><dc:type
           rdf:resource="http://purl.org/dc/dcmitype/StillImage" /><dc:title></dc:title></cc:Work></rdf:RDF></metadata><defs
     id="defs3680" /><sodipodi:namedview
     pagecolor="#ffffff"
     bordercolor="#666666"
     borderopacity="1"
     objecttolerance="10"
     gridtolerance="10"
     guidetolerance="10"
     inkscape:pageopacity="0"
     inkscape:pageshadow="2"
     inkscape:window-width="1366"
     inkscape:window-height="705"
     id="namedview3678"
     showgrid="false"
     inkscape:zoom="2.4798252"
     inkscape:cx="47.584"
     inkscape:cy="47.584"
     inkscape:window-x="-8"
     inkscape:window-y="-8"
     inkscape:window-maximized="1"
     inkscape:current-layer="Capa_1" /><g
     id="g3644"><path
       d="M94.344,64.042c-0.853-0.853-2.15-1.064-3.23-0.534c-6.062,2.991-12.857,4.571-19.654,4.571   c-11.854,0-22.995-4.615-31.375-12.995C26.627,41.626,23.242,21.12,31.66,4.053c0.532-1.08,0.318-2.379-0.534-3.229   c-0.851-0.852-2.15-1.064-3.23-0.534c-4.918,2.427-9.375,5.619-13.246,9.491C5.203,19.228,0,31.789,0,45.149   c0,13.36,5.203,25.92,14.65,35.368c9.447,9.447,22.008,14.65,35.368,14.65c13.361,0,25.922-5.203,35.369-14.65   c3.872-3.871,7.064-8.328,9.491-13.246C95.41,66.191,95.195,64.892,94.344,64.042z"
       id="path3646" /></g><g
     id="g3648" /><g
     id="g3650" /><g
     id="g3652" /><g
     id="g3654" /><g
     id="g3656" /><g
     id="g3658" /><g
     id="g3660" /><g
     id="g3662" /><g
     id="g3664" /><g
     id="g3666" /><g
     id="g3668" /><g
     id="g3670" /><g
     id="g3672" /><g
     id="g3674" /><g
     id="g3676" /><path
     style="fill:#ffff00"
     d="M 41.41421,94.201205 C 25.658893,91.408561 12.504262,81.431866 5.3100832,66.819227 -0.56271027,54.890551 -1.38013,41.960277 2.9208411,29.025228 6.191674,19.188292 13.457011,9.7409714 22.224945,3.9235625 27.56521,0.38036702 28.825633,-0.18063019 30.120508,0.40935422 31.973187,1.2534917 32.050144,2.454269 30.49589,6.2665567 25.764612,17.871477 25.838142,30.346373 30.704475,41.654259 c 2.015343,4.683048 4.781691,8.743568 8.812133,12.934686 5.704959,5.932386 12.933287,10.182165 20.940335,12.311525 3.440638,0.914992 4.790124,1.053619 10.596453,1.088521 7.721827,0.04642 10.662582,-0.480268 17.288485,-3.096364 3.899884,-1.539786 4.254368,-1.61144 5.242305,-1.059611 1.787723,0.998558 1.625223,2.668099 -0.628488,6.457072 C 85.286153,83.184251 72.999932,91.67466 58.301626,94.237829 53.993814,94.989047 45.758238,94.971187 41.41421,94.201213 l 0,-8e-6 z"
     id="path3684"
     inkscape:connector-curvature="0" /></svg>