<?xml version="1.0" encoding="UTF-8" standalone="no"?>
<!-- Generator: Adobe Illustrator 16.0.0, SVG Export Plug-In . SVG Version: 6.00 Build 0)  -->

<svg
   xmlns:dc="http://purl.org/dc/elements/1.1/"
   xmlns:cc="http://creativecommons.org/ns#"
   xmlns:rdf="http://www.w3.org/1999/02/22-rdf-syntax-ns#"
   xmlns:svg="http://www.w3.org/2000/svg"
   xmlns="http://www.w3.org/2000/svg"
   xmlns:sodipodi="http://sodipodi.sourceforge.net/DTD/sodipodi-0.dtd"
   xmlns:inkscape="http://www.inkscape.org/namespaces/inkscape"
   version="1.1"
   id="Capa_1"
   x="0px"
   y="0px"
   width="28.884px"
   height="28.883px"
   viewBox="0 0 28.884 28.883"
   style="enable-background:new 0 0 28.884 28.883;"
   xml:space="preserve"
   inkscape:version="0.91 r13725"
   sodipodi:docname="rain20.svg"><metadata
     id="metadata3759"><rdf:RDF><cc:Work
         rdf:about=""><dc:format>image/svg+xml</dc:format><dc:type
           rdf:resource="http://purl.org/dc/dcmitype/StillImage" /><dc:title></dc:title></cc:Work></rdf:RDF></metadata><defs
     id="defs3757" /><sodipodi:namedview
     pagecolor="#ffffff"
     bordercolor="#666666"
     borderopacity="1"
     objecttolerance="10"
     gridtolerance="10"
     guidetolerance="10"
     inkscape:pageopacity="0"
     inkscape:pageshadow="2"
     inkscape:window-width="1366"
     inkscape:window-height="705"
     id="namedview3755"
     showgrid="false"
     inkscape:zoom="8.1708965"
     inkscape:cx="14.442"
     inkscape:cy="14.4415"
     inkscape:window-x="-8"
     inkscape:window-y="-8"
     inkscape:window-maximized="1"
     inkscape:current-layer="Capa_1" /><g
     id="g3709"><g
       id="g3711"><path
         d="M24.91,6.899c-0.385-3.056-2.963-5.427-6.118-5.427c-1.509,0-2.872,0.559-3.945,1.453c-1.011-1.29-2.565-2.137-4.33-2.137    c-2.636,0-4.832,1.851-5.38,4.321C2.271,5.309,0,7.672,0,10.588c0,3.046,2.471,5.517,5.519,5.517c0.647,0,1.262-0.132,1.839-0.338    c1.005,1.38,2.62,2.286,4.456,2.286c1.123,0,2.165-0.342,3.037-0.918c0.994,0.968,2.346,1.567,3.842,1.567    c2.203,0,4.09-1.303,4.975-3.169c0.27,0.053,0.548,0.084,0.834,0.084c2.419,0,4.382-1.962,4.382-4.38    C28.882,8.959,27.133,7.109,24.91,6.899z"
         id="path3713" /><path
         d="M5.656,18.706c0,0-1.696,2.76-1.696,3.695s0.76,1.695,1.696,1.695s1.696-0.76,1.696-1.695S5.656,18.706,5.656,18.706z"
         id="path3715" /><path
         d="M8.352,26.401c0,0.938,0.76,1.695,1.696,1.695s1.696-0.76,1.696-1.695s-1.696-3.695-1.696-3.695    S8.352,25.463,8.352,26.401z"
         id="path3717" /><path
         d="M14.441,18.706c0,0-1.696,2.76-1.696,3.695s0.76,1.695,1.696,1.695s1.696-0.76,1.696-1.695S14.441,18.706,14.441,18.706z"
         id="path3719" /><path
         d="M17.137,26.401c0,0.938,0.76,1.695,1.696,1.695s1.696-0.76,1.696-1.695s-1.696-3.695-1.696-3.695    S17.137,25.463,17.137,26.401z"
         id="path3721" /><path
         d="M21.529,22.401c0,0.938,0.761,1.695,1.697,1.695c0.936,0,1.695-0.76,1.695-1.695s-1.695-3.695-1.695-3.695    S21.529,21.463,21.529,22.401z"
         id="path3723" /></g></g><g
     id="g3725" /><g
     id="g3727" /><g
     id="g3729" /><g
     id="g3731" /><g
     id="g3733" /><g
     id="g3735" /><g
     id="g3737" /><g
     id="g3739" /><g
     id="g3741" /><g
     id="g3743" /><g
     id="g3745" /><g
     id="g3747" /><g
     id="g3749" /><g
     id="g3751" /><g
     id="g3753" /><path
     style="fill:#0000ff"
     d="m 17.134202,18.390785 c -0.792088,-0.253262 -1.643597,-0.722083 -1.973393,-1.086503 -0.223115,-0.246539 -0.223775,-0.246464 -0.994964,0.11442 -2.152097,1.007088 -4.3183831,0.659072 -6.1041776,-0.98064 L 7.3069204,15.745054 6.4178646,15.925578 C 2.9164948,16.636538 -0.48519208,13.322466 0.12972372,9.7993985 0.51968023,7.565201 2.1165324,5.8499352 4.3080438,5.3112372 5.1860575,5.0954117 5.2056744,5.0820542 5.3468589,4.6038921 5.7259095,3.3201272 6.943164,1.9812978 8.315558,1.3386904 9.0065174,1.0151567 9.3240576,0.94355428 10.244175,0.90380512 11.902608,0.83216059 13.205027,1.3331241 14.358087,2.4861841 l 0.49521,0.49521 0.449114,-0.3097629 c 1.317463,-0.9086788 2.957239,-1.3039892 4.399762,-1.0606761 2.475952,0.4176234 4.474294,2.2944659 5.039121,4.7327403 0.140348,0.6058679 0.163059,0.6310893 0.636407,0.7067809 1.206114,0.1928653 2.460345,1.1802668 3.022626,2.3795829 0.279257,0.5956398 0.324072,0.8520118 0.324072,1.8538918 0,1.090132 -0.02595,1.210522 -0.416001,1.929818 -0.800891,1.476937 -2.067068,2.260636 -3.721654,2.303512 l -0.955628,0.02476 -0.340803,0.53284 c -0.426844,0.667367 -1.418811,1.596637 -2.044648,1.915417 -1.284062,0.65406 -2.84336,0.805945 -4.111463,0.400483 z"
     id="path3761"
     inkscape:connector-curvature="0" /><path
     style="fill:#0000ff"
     d="m 22.400967,23.802953 c -0.529514,-0.328516 -0.871678,-1.054049 -0.77288,-1.638833 0.09102,-0.53876 1.40123,-3.187603 1.589983,-3.214466 0.168716,-0.02401 1.530486,2.716583 1.610457,3.241082 0.08765,0.574832 -0.245406,1.285894 -0.744985,1.590537 -0.46347,0.282624 -1.245729,0.292703 -1.682575,0.02168 z"
     id="path3763"
     inkscape:connector-curvature="0" /><path
     style="fill:#0000ff"
     d="m 13.793357,23.895294 c -0.367043,-0.151819 -0.787447,-0.652261 -0.911598,-1.085151 -0.15264,-0.532223 0.01489,-1.067027 0.824948,-2.633508 0.801796,-1.550501 0.679551,-1.583576 1.690268,0.457327 0.728023,1.47007 0.808807,1.97072 0.420699,2.607239 -0.401121,0.65786 -1.307311,0.950666 -2.024317,0.654093 z"
     id="path3765"
     inkscape:connector-curvature="0" /><path
     style="fill:#0000ff"
     d="M 9.3592894,27.86933 C 8.8410949,27.644057 8.4706187,27.022349 8.470041,26.377055 8.4696999,25.996012 8.6577657,25.49006 9.209279,24.388289 c 0.4068326,-0.812738 0.7838097,-1.477706 0.837727,-1.477706 0.05392,0 0.416626,0.623655 0.806021,1.3859 0.822676,1.610402 0.965542,2.34789 0.575073,2.968583 -0.258044,0.410188 -0.929532,0.788528 -1.386,0.780921 -0.1581071,-0.0026 -0.465372,-0.08213 -0.6828106,-0.176657 z"
     id="path3767"
     inkscape:connector-curvature="0" /><path
     style="fill:#0000ff"
     d="M 4.8345539,23.772236 C 4.2810713,23.434758 4.0218651,22.876953 4.0992967,22.189982 c 0.060603,-0.537666 1.1846471,-2.938811 1.4971542,-3.198169 0.1034246,-0.08583 0.3400072,0.266267 0.850967,1.266479 1.0221996,2.000973 1.0399017,2.824278 0.074711,3.47472 -0.511105,0.344433 -1.1621956,0.359567 -1.6875748,0.03922 z"
     id="path3769"
     inkscape:connector-curvature="0" /><path
     style="fill:#0000ff"
     d="m 18.188858,27.876817 c -0.45373,-0.197554 -0.862672,-0.689518 -0.966641,-1.162883 -0.09862,-0.449036 0.249194,-1.434282 0.978972,-2.773077 0.423187,-0.776346 0.607164,-1.011794 0.718445,-0.919439 0.08227,0.06828 0.449502,0.718388 0.816066,1.444686 0.550796,1.09133 0.666479,1.430354 0.666479,1.953204 0,0.505932 -0.06129,0.698259 -0.305964,0.960117 -0.610274,0.653134 -1.197781,0.806342 -1.907357,0.497392 z"
     id="path3771"
     inkscape:connector-curvature="0" /></svg>