<?xml version="1.0" encoding="UTF-8" standalone="no"?>
<!-- Generator: Adobe Illustrator 18.1.1, SVG Export Plug-In . SVG Version: 6.00 Build 0)  -->

<svg
   xmlns:dc="http://purl.org/dc/elements/1.1/"
   xmlns:cc="http://creativecommons.org/ns#"
   xmlns:rdf="http://www.w3.org/1999/02/22-rdf-syntax-ns#"
   xmlns:svg="http://www.w3.org/2000/svg"
   xmlns="http://www.w3.org/2000/svg"
   xmlns:sodipodi="http://sodipodi.sourceforge.net/DTD/sodipodi-0.dtd"
   xmlns:inkscape="http://www.inkscape.org/namespaces/inkscape"
   version="1.1"
   id="Capa_1"
   x="0px"
   y="0px"
   viewBox="0 0 32.004 32.004"
   style="enable-background:new 0 0 32.004 32.004;"
   xml:space="preserve"
   inkscape:version="0.91 r13725"
   sodipodi:docname="rainy22.svg"><metadata
     id="metadata3393"><rdf:RDF><cc:Work
         rdf:about=""><dc:format>image/svg+xml</dc:format><dc:type
           rdf:resource="http://purl.org/dc/dcmitype/StillImage" /><dc:title></dc:title></cc:Work></rdf:RDF></metadata><defs
     id="defs3391" /><sodipodi:namedview
     pagecolor="#ffffff"
     bordercolor="#666666"
     borderopacity="1"
     objecttolerance="10"
     gridtolerance="10"
     guidetolerance="10"
     inkscape:pageopacity="0"
     inkscape:pageshadow="2"
     inkscape:window-width="1366"
     inkscape:window-height="705"
     id="namedview3389"
     showgrid="false"
     inkscape:zoom="16.747906"
     inkscape:cx="16.002001"
     inkscape:cy="16.002001"
     inkscape:window-x="-8"
     inkscape:window-y="-8"
     inkscape:window-maximized="1"
     inkscape:current-layer="Capa_1" /><g
     id="g3337"><g
       id="g3339"><path
         style="fill:#030104;"
         d="M20,28.002c-0.553,0-1,0.443-1,1.01v1.98c0,0.558,0.443,1.01,1,1.01c0.553,0,1-0.443,1-1.01v-1.98    C21,28.454,20.557,28.002,20,28.002z"
         id="path3341" /><path
         style="fill:#030104;"
         d="M12,28.002c-0.553,0-1,0.443-1,1.01v1.98c0,0.558,0.444,1.01,1,1.01c0.553,0,1-0.443,1-1.01v-1.98    C13,28.454,12.556,28.002,12,28.002z"
         id="path3343" /><path
         style="fill:#030104;"
         d="M24,26.002c-0.553,0-1,0.443-1,1.01v1.98c0,0.558,0.443,1.01,1,1.01c0.553,0,1-0.443,1-1.01v-1.98    C25,26.454,24.557,26.002,24,26.002z"
         id="path3345" /><path
         style="fill:#030104;"
         d="M27.586,13.214c-0.172-0.456-0.393-0.887-0.656-1.287c0.047-0.302,0.07-0.611,0.07-0.925    c0-3.313-2.688-6-6-6c-1.533,0-2.932,0.575-3.992,1.521C15.576,5.563,13.854,5.002,12,5.002c-4.904,0-8.894,3.924-8.998,8.803    C1.207,14.844,0,16.785,0,19.002c0,3.312,2.688,6,6,6h20c3.312,0,6-2.693,6-6C32,16.237,30.13,13.909,27.586,13.214z M21,7.002    c1.839,0,3.389,1.241,3.855,2.933c-0.979-0.592-2.126-0.933-3.355-0.933c-0.641,0-1.26,0.093-1.844,0.266    c-0.319-0.515-0.688-0.994-1.1-1.432C19.23,7.313,20.079,7.002,21,7.002z M26.003,23.002H5.997c-2.203,0-3.997-1.791-3.997-4    c0-1.893,1.317-3.482,3.087-3.896C5.029,14.747,5,14.378,5,14.002c0-3.866,3.134-7,7-7c3.162,0,5.834,2.097,6.702,4.975    c0.769-0.611,1.739-0.975,2.798-0.975c2.316,0,4.225,1.75,4.473,4h0.03c2.203,0,3.997,1.791,3.997,4    C30,21.207,28.211,23.002,26.003,23.002z"
         id="path3347" /><path
         style="fill:#030104;"
         d="M16,26.002c-0.553,0-1,0.443-1,1.01v1.98c0,0.558,0.444,1.01,1,1.01c0.553,0,1-0.443,1-1.01v-1.98    C17,26.454,16.557,26.002,16,26.002z"
         id="path3349" /><path
         style="fill:#030104;"
         d="M27.373,6.047l1.4-1.401c0.396-0.394,0.399-1.027,0.008-1.421c-0.391-0.39-1.021-0.393-1.422,0.007    l-1.4,1.401c-0.395,0.394-0.4,1.027-0.007,1.421C26.343,6.444,26.973,6.447,27.373,6.047z"
         id="path3351" /><path
         style="fill:#030104;"
         d="M8,26.002c-0.553,0-1,0.443-1,1.01v1.98c0,0.558,0.444,1.01,1,1.01c0.553,0,1-0.443,1-1.01v-1.98    C9,26.454,8.556,26.002,8,26.002z"
         id="path3353" /><path
         style="fill:#030104;"
         d="M21,4.002c0.553,0,1-0.443,1-1.01v-1.98c0-0.558-0.443-1.01-1-1.01c-0.553,0-1,0.443-1,1.01v1.98    C20,3.55,20.443,4.002,21,4.002z"
         id="path3355" /><path
         style="fill:#030104;"
         d="M28.004,11.006c0,0.552,0.443,1,1.01,1h1.98c0.558,0,1.01-0.444,1.01-1c0-0.553-0.443-1-1.01-1    h-1.98C28.456,10.006,28.004,10.449,28.004,11.006z"
         id="path3357" /></g></g><g
     id="g3359" /><g
     id="g3361" /><g
     id="g3363" /><g
     id="g3365" /><g
     id="g3367" /><g
     id="g3369" /><g
     id="g3371" /><g
     id="g3373" /><g
     id="g3375" /><g
     id="g3377" /><g
     id="g3379" /><g
     id="g3381" /><g
     id="g3383" /><g
     id="g3385" /><g
     id="g3387" /><path
     style="fill:#0000ff"
     d="M 5.5350204,22.941193 C 5.0051817,22.876389 4.6934493,22.777505 4.1617144,22.505572 3.5345344,22.184828 2.8239209,21.483726 2.5022378,20.86831 2.0675499,20.036702 1.9279883,18.987489 2.1345091,18.103756 2.4372492,16.808287 3.4679373,15.678453 4.7445741,15.242619 L 5.0573488,15.13584 5.0371513,14.365785 C 4.9828932,12.297132 5.6284709,10.59952 7.0144142,9.1663733 7.9202363,8.2296999 8.956038,7.6160323 10.228515,7.2621578 c 0.755934,-0.2102241 2.204921,-0.2685423 2.991634,-0.120406 1.458772,0.2746837 2.692534,0.928619 3.719282,1.971345 0.810968,0.8235872 1.295696,1.6115472 1.72077,2.7972342 0.03356,0.0936 0.07819,0.0784 0.385255,-0.131196 1.255035,-0.856678 3.044557,-0.971977 4.41038,-0.28416 1.234704,0.621787 2.124905,1.747481 2.401932,3.037337 l 0.106621,0.496433 0.443365,0.03695 c 0.87988,0.07334 1.716869,0.471495 2.378682,1.131544 0.765753,0.763709 1.151412,1.673782 1.162159,2.742438 0.007,0.694845 -0.07096,1.090179 -0.327838,1.662675 -0.492771,1.098232 -1.442693,1.90884 -2.650221,2.261544 -0.334804,0.09779 -1.036333,0.10518 -10.717758,0.112875 -5.697727,0.0045 -10.520718,-0.01148 -10.7177576,-0.03558 z"
     id="path3395"
     inkscape:connector-curvature="0" /><path
     style="fill:#ffff00"
     d="m 24.373197,9.6484013 c -0.814578,-0.4085722 -1.957088,-0.6794118 -2.86603,-0.6794118 -0.338112,0 -1.214219,0.1118288 -1.674739,0.2137686 C 19.697081,9.212718 19.636254,9.1581912 19.281979,8.6893273 19.06292,8.3994153 18.823909,8.0883771 18.750842,7.9981313 18.619923,7.8364306 18.619679,7.8327442 18.734056,7.7442504 18.966939,7.5640679 19.69576,7.2355041 20.072198,7.140995 c 0.58202,-0.1461224 1.687904,-0.091879 2.225608,0.1091656 0.827223,0.3092942 1.527995,0.8503193 1.977828,1.5269654 0.232687,0.3500101 0.55242,1.0204489 0.502787,1.0542757 -0.0094,0.00642 -0.191765,-0.075934 -0.405224,-0.1830004 z"
     id="path3397"
     inkscape:connector-curvature="0" /></svg>