<?xml version="1.0" encoding="UTF-8" standalone="no"?>
<!-- Generator: Adobe Illustrator 18.1.1, SVG Export Plug-In . SVG Version: 6.00 Build 0)  -->

<svg
   xmlns:dc="http://purl.org/dc/elements/1.1/"
   xmlns:cc="http://creativecommons.org/ns#"
   xmlns:rdf="http://www.w3.org/1999/02/22-rdf-syntax-ns#"
   xmlns:svg="http://www.w3.org/2000/svg"
   xmlns="http://www.w3.org/2000/svg"
   xmlns:sodipodi="http://sodipodi.sourceforge.net/DTD/sodipodi-0.dtd"
   xmlns:inkscape="http://www.inkscape.org/namespaces/inkscape"
   version="1.1"
   id="Capa_1"
   x="0px"
   y="0px"
   viewBox="0 0 22.006 22.006"
   style="enable-background:new 0 0 22.006 22.006;"
   xml:space="preserve"
   inkscape:version="0.91 r13725"
   sodipodi:docname="sunny25.svg"><metadata
     id="metadata3926"><rdf:RDF><cc:Work
         rdf:about=""><dc:format>image/svg+xml</dc:format><dc:type
           rdf:resource="http://purl.org/dc/dcmitype/StillImage" /><dc:title></dc:title></cc:Work></rdf:RDF></metadata><defs
     id="defs3924" /><sodipodi:namedview
     pagecolor="#ffffff"
     bordercolor="#666666"
     borderopacity="1"
     objecttolerance="10"
     gridtolerance="10"
     guidetolerance="10"
     inkscape:pageopacity="0"
     inkscape:pageshadow="2"
     inkscape:window-width="1366"
     inkscape:window-height="705"
     id="namedview3922"
     showgrid="false"
     inkscape:zoom="10.724348"
     inkscape:cx="11.003"
     inkscape:cy="11.003"
     inkscape:window-x="-8"
     inkscape:window-y="-8"
     inkscape:window-maximized="1"
     inkscape:current-layer="Capa_1" /><g
     id="g3870"><g
       id="g3872"><path
         style="fill:#030104;"
         d="M4.63,6.045C5.024,6.438,5.657,6.444,6.051,6.05c0.39-0.39,0.393-1.021-0.007-1.421l-1.4-1.4    c-0.395-0.394-1.028-0.4-1.421-0.006C2.833,3.614,2.83,4.244,3.23,4.644L4.63,6.045z"
         id="path3874" /><circle
         style="fill:#030104;"
         cx="11.003"
         cy="11"
         r="6"
         id="circle3876" /><path
         style="fill:#030104;"
         d="M4,11.003c0-0.552-0.444-1-1.01-1H1.009c-0.557,0-1.009,0.444-1.009,1c0,0.553,0.444,1,1.009,1    H2.99C3.548,12.003,4,11.56,4,11.003z"
         id="path3878" /><path
         style="fill:#030104;"
         d="M20.997,10.003h-1.98c-0.559,0-1.011,0.444-1.011,1c0,0.553,0.445,1,1.011,1h1.98    c0.557,0,1.009-0.443,1.009-1C22.006,10.451,21.562,10.003,20.997,10.003z"
         id="path3880" /><path
         style="fill:#030104;"
         d="M4.629,15.962l-1.4,1.4c-0.394,0.395-0.4,1.029-0.007,1.421c0.391,0.389,1.021,0.392,1.421-0.007    l1.4-1.4c0.395-0.395,0.401-1.027,0.007-1.421C5.659,15.565,5.029,15.562,4.629,15.962z"
         id="path3882" /><path
         style="fill:#030104;"
         d="M11.003,4c0.553,0,1-0.444,1-1.01V1.01c0-0.558-0.443-1.01-1-1.01c-0.553,0-1,0.444-1,1.01v1.98    C10.003,3.548,10.447,4,11.003,4z"
         id="path3884" /><path
         style="fill:#030104;"
         d="M11.003,18.006c-0.553,0-1,0.445-1,1.011v1.98c0,0.559,0.444,1.009,1,1.009    c0.553,0,1-0.442,1-1.009v-1.98C12.003,18.458,11.56,18.006,11.003,18.006z"
         id="path3886" /><path
         style="fill:#030104;"
         d="M17.376,6.045l1.4-1.401c0.395-0.395,0.4-1.027,0.007-1.421c-0.392-0.39-1.021-0.393-1.421,0.007    l-1.4,1.4c-0.395,0.394-0.4,1.028-0.007,1.421C16.347,6.441,16.976,6.444,17.376,6.045z"
         id="path3888" /><path
         style="fill:#030104;"
         d="M17.376,15.962c-0.395-0.395-1.027-0.4-1.421-0.007c-0.39,0.392-0.394,1.021,0.007,1.421l1.4,1.4    c0.395,0.395,1.027,0.4,1.421,0.007c0.389-0.39,0.392-1.021-0.007-1.421L17.376,15.962z"
         id="path3890" /></g></g><g
     id="g3892" /><g
     id="g3894" /><g
     id="g3896" /><g
     id="g3898" /><g
     id="g3900" /><g
     id="g3902" /><g
     id="g3904" /><g
     id="g3906" /><g
     id="g3908" /><g
     id="g3910" /><g
     id="g3912" /><g
     id="g3914" /><g
     id="g3916" /><g
     id="g3918" /><g
     id="g3920" /><path
     style="fill:#ffff00"
     d="M 10.140219,16.890588 C 7.7027785,16.51418 5.6930807,14.627621 5.1871608,12.241014 4.528734,9.1349771 6.4773887,6.0329903 9.5865487,5.2378011 c 3.1264723,-0.799617 6.3441343,1.1257633 7.1838323,4.2986522 0.190672,0.7204767 0.210573,2.0718277 0.04109,2.7906367 -0.392572,1.665025 -1.675119,3.271147 -3.184183,3.98753 -0.433043,0.205574 -0.976174,0.417687 -1.206957,0.471362 -0.653867,0.152076 -1.670657,0.198724 -2.280117,0.104606 z"
     id="path3928"
     inkscape:connector-curvature="0" /></svg>